<svg xmlns="http://www.w3.org/2000/svg" width="800" height="400" viewBox="0 0 800 400">
  <rect width="800" height="400" fill="#F0FDF4" rx="8"/>

  <!-- Back document -->
  <rect x="120" y="60" width="220" height="280" fill="#A7F3D0" rx="6"/>
  <rect x="140" y="90" width="120" height="8" fill="#059669" rx="2"/>
  <rect x="140" y="110" width="160" height="6" fill="#059669" opacity="0.4" rx="2"/>
  <rect x="140" y="126" width="140" height="6" fill="#059669" opacity="0.4" rx="2"/>
  <rect x="140" y="142" width="155" height="6" fill="#059669" opacity="0.4" rx="2"/>
  <!-- Bar chart on back doc -->
  <rect x="150" y="220" width="24" height="70" fill="#059669" rx="2"/>
  <rect x="182" y="200" width="24" height="90" fill="#059669" opacity="0.7" rx="2"/>
  <rect x="214" y="230" width="24" height="60" fill="#059669" opacity="0.5" rx="2"/>
  <rect x="246" y="190" width="24" height="100" fill="#059669" rx="2"/>
  <line x1="145" y1="295" x2="280" y2="295" stroke="#059669" stroke-width="2"/>

  <!-- Middle document -->
  <rect x="300" y="40" width="220" height="300" fill="#ECFDF5" stroke="#059669" stroke-width="2" rx="6"/>
  <rect x="320" y="65" width="100" height="10" fill="#059669" rx="2"/>
  <rect x="320" y="90" width="180" height="6" fill="#059669" opacity="0.3" rx="2"/>
  <rect x="320" y="106" width="160" height="6" fill="#059669" opacity="0.3" rx="2"/>
  <!-- Table grid -->
  <rect x="320" y="130" width="180" height="1" fill="#059669" opacity="0.5"/>
  <rect x="320" y="150" width="180" height="1" fill="#059669" opacity="0.5"/>
  <rect x="320" y="170" width="180" height="1" fill="#059669" opacity="0.5"/>
  <rect x="320" y="190" width="180" height="1" fill="#059669" opacity="0.5"/>
  <rect x="320" y="210" width="180" height="1" fill="#059669" opacity="0.5"/>
  <rect x="410" y="130" width="1" height="80" fill="#059669" opacity="0.5"/>
  <!-- Numbers -->
  <text x="440" y="147" font-family="sans-serif" font-size="11" fill="#059669" text-anchor="end">1,250,000</text>
  <text x="440" y="167" font-family="sans-serif" font-size="11" fill="#059669" text-anchor="end">890,500</text>
  <text x="440" y="187" font-family="sans-serif" font-size="11" fill="#059669" text-anchor="end">425,300</text>
  <text x="440" y="207" font-family="sans-serif" font-size="11" fill="#059669" text-anchor="end">178,200</text>
  <!-- Pie chart -->
  <circle cx="380" cy="280" r="40" fill="#34D399"/>
  <path d="M380,280 L380,240 A40,40 0 0,1 414,258 Z" fill="#059669"/>
  <path d="M380,280 L414,258 A40,40 0 0,1 400,316 Z" fill="#6EE7B7"/>

  <!-- Front document -->
  <rect x="480" y="70" width="220" height="280" fill="white" stroke="#059669" stroke-width="2" rx="6"/>
  <rect x="500" y="95" width="130" height="10" fill="#059669" rx="2"/>
  <rect x="500" y="115" width="180" height="6" fill="#059669" opacity="0.3" rx="2"/>
  <rect x="500" y="131" width="170" height="6" fill="#059669" opacity="0.3" rx="2"/>
  <rect x="500" y="147" width="175" height="6" fill="#059669" opacity="0.3" rx="2"/>
  <!-- Line chart -->
  <polyline points="510,270 540,240 570,255 600,220 630,200 660,180" fill="none" stroke="#059669" stroke-width="3" stroke-linecap="round" stroke-linejoin="round"/>
  <polyline points="510,280 540,270 570,275 600,260 630,255 660,240" fill="none" stroke="#34D399" stroke-width="3" stroke-linecap="round" stroke-linejoin="round"/>
  <line x1="505" y1="290" x2="670" y2="290" stroke="#059669" stroke-width="1.5"/>
  <line x1="505" y1="180" x2="505" y2="290" stroke="#059669" stroke-width="1.5"/>
  <!-- Trend arrow -->
  <polygon points="665,175 680,185 665,195" fill="#059669"/>
  <rect x="630" y="182" width="36" height="6" fill="#059669" rx="2"/>

  <!-- Title -->
  <text x="400" y="385" font-family="sans-serif" font-size="18" fill="#059669" text-anchor="middle" font-weight="bold">Financial Statements</text>
</svg>